<svg xmlns="http://www.w3.org/2000/svg" height="512pt" version="1.1" viewBox="-33 0 512 512" width="512pt">
<g id="surface1">
<path d="M 237.320312 0 C 123.582031 0 30.894531 91.835938 29.53125 205.253906 L 4.792969 277.40625 C -2 297.226562 -1.554688 314.675781 6.019531 325.273438 C 10.554688 331.625 17.558594 335.265625 25.238281 335.265625 L 29.519531 335.265625 L 29.519531 360.433594 C 29.519531 390.851562 54.265625 415.597656 84.6875 415.597656 C 98.5625 415.597656 109.851562 426.890625 109.851562 440.765625 L 109.851562 456.832031 C 109.851562 487.25 134.597656 512 165.019531 512 L 277.484375 512 C 307.902344 512 332.652344 487.25 332.652344 456.832031 L 332.652344 392.449219 C 364.507812 375.984375 391.574219 351.582031 411.320312 321.40625 C 433.429688 287.621094 445.117188 248.339844 445.117188 207.796875 C 445.117188 93.21875 351.898438 0 237.320312 0 Z M 237.320312 0 " style=" stroke:none;fill-rule:nonzero;fill:rgb(100%,80.784314%,74.901961%);fill-opacity:1;" />
<path d="M 237.320312 0 C 232.359375 0 227.441406 0.183594 222.570312 0.527344 L 222.570312 512 L 277.484375 512 C 307.902344 512 332.652344 487.253906 332.652344 456.832031 L 332.652344 392.449219 C 364.507812 375.984375 391.574219 351.582031 411.320312 321.40625 C 433.429688 287.621094 445.117188 248.339844 445.117188 207.800781 C 445.117188 93.21875 351.898438 0 237.320312 0 Z M 237.320312 0 " style=" stroke:none;fill-rule:nonzero;fill:rgb(100%,65.490196%,56.078431%);fill-opacity:1;" />
<path d="M 350.925781 135.996094 L 270.589844 135.996094 C 262.308594 135.996094 255.589844 142.710938 255.589844 150.996094 C 255.589844 159.277344 262.308594 165.996094 270.589844 165.996094 L 314.710938 165.996094 L 237.316406 243.390625 L 191.121094 197.191406 C 185.261719 191.335938 175.765625 191.335938 169.90625 197.191406 L 113.101562 253.996094 C 107.242188 259.855469 107.242188 269.351562 113.101562 275.210938 C 118.957031 281.066406 128.457031 281.066406 134.316406 275.210938 L 180.511719 229.011719 L 226.710938 275.210938 C 229.523438 278.023438 233.339844 279.605469 237.316406 279.605469 C 241.292969 279.605469 245.109375 278.023438 247.921875 275.210938 L 335.925781 187.210938 L 335.925781 231.328125 C 335.925781 239.613281 342.640625 246.328125 350.925781 246.328125 C 359.207031 246.328125 365.925781 239.613281 365.925781 231.328125 L 365.925781 150.996094 C 365.925781 142.710938 359.207031 135.996094 350.925781 135.996094 Z M 350.925781 135.996094 " style=" stroke:none;fill-rule:nonzero;fill:rgb(50.196078%,82.745098%,59.607843%);fill-opacity:1;" />
<path d="M 350.925781 135.996094 L 270.589844 135.996094 C 262.308594 135.996094 255.589844 142.710938 255.589844 150.996094 C 255.589844 159.277344 262.308594 165.996094 270.589844 165.996094 L 314.710938 165.996094 L 237.316406 243.390625 L 222.566406 228.640625 L 222.566406 271.066406 L 226.710938 275.210938 C 229.523438 278.023438 233.339844 279.605469 237.316406 279.605469 C 241.292969 279.605469 245.109375 278.023438 247.921875 275.210938 L 335.925781 187.210938 L 335.925781 231.328125 C 335.925781 239.613281 342.640625 246.328125 350.925781 246.328125 C 359.207031 246.328125 365.925781 239.613281 365.925781 231.328125 L 365.925781 150.996094 C 365.925781 142.710938 359.207031 135.996094 350.925781 135.996094 Z M 350.925781 135.996094 " style=" stroke:none;fill-rule:nonzero;fill:rgb(0%,70.588235%,29.411765%);fill-opacity:1;" />
</g>
</svg>